<svg width="298" height="165" viewBox="0 0 298 165" fill="none" xmlns="http://www.w3.org/2000/svg">
<mask id="path-1-outside-1_121_115" maskUnits="userSpaceOnUse" x="111" y="28" width="78" height="104" fill="black">
<rect fill="white" x="111" y="28" width="78" height="104"/>
<path d="M121.186 59.26C123.256 49.63 127.711 42.205 134.551 36.985C141.391 31.765 149.896 29.155 160.066 29.155C168.976 29.155 175.816 31.18 180.586 35.23C185.356 39.28 187.741 44.545 187.741 51.025C187.741 52.645 187.606 54.265 187.336 55.885C186.256 61.825 183.916 66.685 180.316 70.465C176.716 74.155 172.801 76.675 168.571 78.025V78.565C172.621 80.005 175.771 82.255 178.021 85.315C180.271 88.285 181.396 92.065 181.396 96.655C181.396 98.635 181.216 100.525 180.856 102.325C179.326 110.785 175.231 117.67 168.571 122.98C161.911 128.2 153.541 130.81 143.461 130.81C133.831 130.81 126.226 128.695 120.646 124.465C115.156 120.235 112.411 113.8 112.411 105.16C112.411 103.99 112.591 101.875 112.951 98.815H135.361C135.181 100.255 135.091 101.245 135.091 101.785C135.091 104.935 135.991 107.365 137.791 109.075C139.591 110.785 142.291 111.64 145.891 111.64C149.941 111.64 153.181 110.335 155.611 107.725C158.041 105.115 159.256 101.785 159.256 97.735C159.256 94.405 157.996 92.02 155.476 90.58C153.046 89.05 149.176 88.285 143.866 88.285H139.546L142.921 69.52H147.241C157.411 69.52 163.171 65.92 164.521 58.72C164.701 57.64 164.791 56.83 164.791 56.29C164.791 53.77 164.026 51.835 162.496 50.485C161.056 49.135 158.941 48.46 156.151 48.46C152.731 48.46 149.986 49.495 147.916 51.565C145.846 53.635 144.406 56.2 143.596 59.26H121.186Z"/>
</mask>
<path d="M121.186 59.26C123.256 49.63 127.711 42.205 134.551 36.985C141.391 31.765 149.896 29.155 160.066 29.155C168.976 29.155 175.816 31.18 180.586 35.23C185.356 39.28 187.741 44.545 187.741 51.025C187.741 52.645 187.606 54.265 187.336 55.885C186.256 61.825 183.916 66.685 180.316 70.465C176.716 74.155 172.801 76.675 168.571 78.025V78.565C172.621 80.005 175.771 82.255 178.021 85.315C180.271 88.285 181.396 92.065 181.396 96.655C181.396 98.635 181.216 100.525 180.856 102.325C179.326 110.785 175.231 117.67 168.571 122.98C161.911 128.2 153.541 130.81 143.461 130.81C133.831 130.81 126.226 128.695 120.646 124.465C115.156 120.235 112.411 113.8 112.411 105.16C112.411 103.99 112.591 101.875 112.951 98.815H135.361C135.181 100.255 135.091 101.245 135.091 101.785C135.091 104.935 135.991 107.365 137.791 109.075C139.591 110.785 142.291 111.64 145.891 111.64C149.941 111.64 153.181 110.335 155.611 107.725C158.041 105.115 159.256 101.785 159.256 97.735C159.256 94.405 157.996 92.02 155.476 90.58C153.046 89.05 149.176 88.285 143.866 88.285H139.546L142.921 69.52H147.241C157.411 69.52 163.171 65.92 164.521 58.72C164.701 57.64 164.791 56.83 164.791 56.29C164.791 53.77 164.026 51.835 162.496 50.485C161.056 49.135 158.941 48.46 156.151 48.46C152.731 48.46 149.986 49.495 147.916 51.565C145.846 53.635 144.406 56.2 143.596 59.26H121.186Z" fill="#E5F0FF"/>
<path d="M121.186 59.26L120.208 59.0498L119.948 60.26H121.186V59.26ZM134.551 36.985L135.158 37.7799L134.551 36.985ZM180.586 35.23L181.233 34.4677L180.586 35.23ZM187.336 55.885L188.32 56.0639L188.321 56.0566L188.322 56.0494L187.336 55.885ZM180.316 70.465L181.032 71.1634L181.04 71.1547L180.316 70.465ZM168.571 78.025L168.267 77.0723L167.571 77.2945V78.025H168.571ZM168.571 78.565H167.571V79.2708L168.236 79.5072L168.571 78.565ZM178.021 85.315L177.215 85.9074L177.219 85.9131L177.224 85.9189L178.021 85.315ZM180.856 102.325L179.875 102.129L179.873 102.138L179.872 102.147L180.856 102.325ZM168.571 122.98L169.188 123.767L169.194 123.762L168.571 122.98ZM120.646 124.465L120.036 125.257L120.042 125.262L120.646 124.465ZM112.951 98.815V97.815H112.062L111.958 98.6982L112.951 98.815ZM135.361 98.815L136.353 98.939L136.494 97.815H135.361V98.815ZM137.791 109.075L137.102 109.8L137.102 109.8L137.791 109.075ZM155.476 90.58L154.943 91.4262L154.961 91.4376L154.98 91.4482L155.476 90.58ZM139.546 88.285L138.562 88.108L138.35 89.285H139.546V88.285ZM142.921 69.52V68.52H142.085L141.937 69.343L142.921 69.52ZM164.521 58.72L165.504 58.9043L165.506 58.8944L165.507 58.8844L164.521 58.72ZM162.496 50.485L161.812 51.2145L161.823 51.2248L161.834 51.2348L162.496 50.485ZM143.596 59.26V60.26H144.366L144.563 59.5159L143.596 59.26ZM122.164 59.4701C124.191 50.0373 128.534 42.8347 135.158 37.7799L133.944 36.19C126.888 41.5753 122.321 49.2227 120.208 59.0498L122.164 59.4701ZM135.158 37.7799C141.793 32.716 150.074 30.155 160.066 30.155V28.155C149.718 28.155 140.989 30.814 133.944 36.19L135.158 37.7799ZM160.066 30.155C168.838 30.155 175.413 32.1495 179.939 35.9923L181.233 34.4677C176.219 30.2105 169.114 28.155 160.066 28.155V30.155ZM179.939 35.9923C184.476 39.8447 186.741 44.8266 186.741 51.025H188.741C188.741 44.2634 186.236 38.7153 181.233 34.4677L179.939 35.9923ZM186.741 51.025C186.741 52.5892 186.611 54.1542 186.349 55.7206L188.322 56.0494C188.601 54.3758 188.741 52.7008 188.741 51.025H186.741ZM186.352 55.7061C185.301 61.485 183.037 66.1577 179.592 69.7753L181.04 71.1547C184.795 67.2123 187.21 62.165 188.32 56.0639L186.352 55.7061ZM179.6 69.7667C176.096 73.3584 172.317 75.7796 168.267 77.0723L168.875 78.9777C173.284 77.5704 177.336 74.9516 181.032 71.1633L179.6 69.7667ZM167.571 78.025V78.565H169.571V78.025H167.571ZM168.236 79.5072C172.123 80.8894 175.099 83.029 177.215 85.9074L178.827 84.7226C176.443 81.481 173.119 79.1206 168.906 77.6228L168.236 79.5072ZM177.224 85.9189C179.314 88.678 180.396 92.2314 180.396 96.655H182.396C182.396 91.8986 181.228 87.892 178.818 84.7111L177.224 85.9189ZM180.396 96.655C180.396 98.5743 180.221 100.398 179.875 102.129L181.836 102.521C182.21 100.652 182.396 98.6957 182.396 96.655H180.396ZM179.872 102.147C178.384 110.371 174.416 117.041 167.947 122.198L169.194 123.762C176.046 118.299 180.267 111.199 181.84 102.503L179.872 102.147ZM167.954 122.193C161.502 127.25 153.362 129.81 143.461 129.81V131.81C153.72 131.81 162.32 129.15 169.188 123.767L167.954 122.193ZM143.461 129.81C133.968 129.81 126.601 127.725 121.25 123.668L120.042 125.262C125.85 129.665 133.693 131.81 143.461 131.81V129.81ZM121.256 123.673C116.072 119.678 113.411 113.574 113.411 105.16H111.411C111.411 114.026 114.24 120.792 120.036 125.257L121.256 123.673ZM113.411 105.16C113.411 104.056 113.584 101.996 113.944 98.9318L111.958 98.6982C111.598 101.754 111.411 103.924 111.411 105.16H113.411ZM112.951 99.815H135.361V97.815H112.951V99.815ZM134.369 98.691C134.189 100.126 134.091 101.174 134.091 101.785H136.091C136.091 101.316 136.172 100.384 136.353 98.939L134.369 98.691ZM134.091 101.785C134.091 105.131 135.053 107.853 137.102 109.8L138.48 108.35C136.929 106.877 136.091 104.739 136.091 101.785H134.091ZM137.102 109.8C139.157 111.752 142.149 112.64 145.891 112.64V110.64C142.433 110.64 140.025 109.818 138.48 108.35L137.102 109.8ZM145.891 112.64C150.177 112.64 153.697 111.248 156.343 108.406L154.879 107.044C152.665 109.422 149.705 110.64 145.891 110.64V112.64ZM156.343 108.406C158.969 105.586 160.256 102.001 160.256 97.735H158.256C158.256 101.569 157.113 104.644 154.879 107.044L156.343 108.406ZM160.256 97.735C160.256 94.1096 158.855 91.3592 155.972 89.7118L154.98 91.4482C157.137 92.6808 158.256 94.7004 158.256 97.735H160.256ZM156.009 89.7338C153.333 88.0494 149.228 87.285 143.866 87.285V89.285C149.124 89.285 152.758 90.0506 154.943 91.4262L156.009 89.7338ZM143.866 87.285H139.546V89.285H143.866V87.285ZM140.53 88.462L143.905 69.697L141.937 69.343L138.562 88.108L140.53 88.462ZM142.921 70.52H147.241V68.52H142.921V70.52ZM147.241 70.52C152.426 70.52 156.619 69.6051 159.718 67.668C162.856 65.7073 164.782 62.755 165.504 58.9043L163.538 58.5357C162.91 61.885 161.281 64.3327 158.658 65.972C155.998 67.6349 152.225 68.52 147.241 68.52V70.52ZM165.507 58.8844C165.689 57.7934 165.791 56.9163 165.791 56.29H163.791C163.791 56.7437 163.713 57.4866 163.534 58.5556L165.507 58.8844ZM165.791 56.29C165.791 53.5561 164.952 51.3185 163.157 49.7352L161.834 51.2348C163.1 52.3515 163.791 53.9839 163.791 56.29H165.791ZM163.18 49.7555C161.49 48.1711 159.09 47.46 156.151 47.46V49.46C158.792 49.46 160.622 50.0989 161.812 51.2145L163.18 49.7555ZM156.151 47.46C152.514 47.46 149.498 48.5688 147.209 50.8579L148.623 52.2721C150.474 50.4212 152.948 49.46 156.151 49.46V47.46ZM147.209 50.8579C145.004 53.0628 143.481 55.7877 142.629 59.0041L144.563 59.5159C145.331 56.6122 146.688 54.2072 148.623 52.2721L147.209 50.8579ZM143.596 58.26H121.186V60.26H143.596V58.26Z" fill="#E5F0FF" mask="url(#path-1-outside-1_121_115)"/>
<g filter="url(#filter0_d_121_115)">
<mask id="path-3-outside-2_121_115" maskUnits="userSpaceOnUse" x="19" y="62" width="267" height="41" fill="black">
<rect fill="white" x="19" y="62" width="267" height="41"/>
<path d="M74.2978 63.092L57.7198 101H46.5418L44.8678 76.106L34.2298 101H23.0518L20.1358 63.092H30.0178L30.6118 90.686L42.2218 63.092H52.4278L54.0478 90.524L64.3618 63.092H74.2978ZM86.8667 70.382L85.5167 78.266H97.8827L96.6407 85.232H84.2747L82.7627 93.71H96.7487L95.4527 101H72.2327L78.9287 63.092H102.149L100.853 70.382H86.8667ZM135.792 72.92C135.396 75.152 134.478 77.006 133.038 78.482C131.598 79.958 129.87 80.984 127.854 81.56C129.654 81.956 131.076 82.838 132.12 84.206C133.164 85.574 133.686 87.176 133.686 89.012C133.686 89.588 133.632 90.146 133.524 90.686C132.984 93.854 131.436 96.374 128.88 98.246C126.324 100.082 123.066 101 119.106 101H101.448L108.144 63.092H125.208C128.628 63.092 131.274 63.794 133.146 65.198C135.018 66.602 135.954 68.546 135.954 71.03C135.954 71.642 135.9 72.272 135.792 72.92ZM120.672 78.482C122.22 78.482 123.462 78.14 124.398 77.456C125.334 76.772 125.91 75.782 126.126 74.486C126.162 74.27 126.18 73.982 126.18 73.622C126.18 72.578 125.838 71.786 125.154 71.246C124.47 70.67 123.462 70.382 122.13 70.382H116.082L114.678 78.482H120.672ZM124.344 89.444C124.416 89.012 124.452 88.688 124.452 88.472C124.452 87.428 124.074 86.618 123.318 86.042C122.562 85.43 121.518 85.124 120.186 85.124H113.49L111.978 93.656H118.782C120.366 93.656 121.626 93.296 122.562 92.576C123.498 91.856 124.092 90.812 124.344 89.444ZM195.435 63.092C198.927 63.092 201.933 63.722 204.453 64.982C207.009 66.206 208.953 67.952 210.285 70.22C211.653 72.452 212.337 75.08 212.337 78.104C212.337 79.148 212.211 80.462 211.959 82.046C211.311 85.754 209.907 89.048 207.747 91.928C205.623 94.808 202.905 97.04 199.593 98.624C196.317 100.208 192.699 101 188.739 101H174.537L181.233 63.092H195.435ZM189.549 93.116C193.041 93.116 195.939 92.144 198.243 90.2C200.547 88.256 201.987 85.538 202.563 82.046C202.743 80.966 202.833 80.066 202.833 79.346C202.833 76.682 202.023 74.63 200.403 73.19C198.783 71.714 196.479 70.976 193.491 70.976H189.063L185.175 93.116H189.549ZM247.738 63.092L246.496 70.382H236.398L230.998 101H221.764L227.164 70.382H217.12L218.416 63.092H247.738ZM261.444 63.092L257.448 85.718C257.304 86.654 257.232 87.302 257.232 87.662C257.232 89.318 257.7 90.596 258.636 91.496C259.572 92.36 260.958 92.792 262.794 92.792C264.954 92.792 266.718 92.18 268.086 90.956C269.454 89.732 270.336 87.986 270.732 85.718L274.728 63.092H283.962L279.966 85.718C279.354 89.138 278.13 92.036 276.294 94.412C274.494 96.752 272.28 98.498 269.652 99.65C267.06 100.802 264.234 101.378 261.174 101.378C257.214 101.378 254.01 100.352 251.562 98.3C249.15 96.248 247.944 93.278 247.944 89.39C247.944 88.238 248.052 87.014 248.268 85.718L252.21 63.092H261.444Z"/>
</mask>
<path d="M74.2978 63.092L57.7198 101H46.5418L44.8678 76.106L34.2298 101H23.0518L20.1358 63.092H30.0178L30.6118 90.686L42.2218 63.092H52.4278L54.0478 90.524L64.3618 63.092H74.2978ZM86.8667 70.382L85.5167 78.266H97.8827L96.6407 85.232H84.2747L82.7627 93.71H96.7487L95.4527 101H72.2327L78.9287 63.092H102.149L100.853 70.382H86.8667ZM135.792 72.92C135.396 75.152 134.478 77.006 133.038 78.482C131.598 79.958 129.87 80.984 127.854 81.56C129.654 81.956 131.076 82.838 132.12 84.206C133.164 85.574 133.686 87.176 133.686 89.012C133.686 89.588 133.632 90.146 133.524 90.686C132.984 93.854 131.436 96.374 128.88 98.246C126.324 100.082 123.066 101 119.106 101H101.448L108.144 63.092H125.208C128.628 63.092 131.274 63.794 133.146 65.198C135.018 66.602 135.954 68.546 135.954 71.03C135.954 71.642 135.9 72.272 135.792 72.92ZM120.672 78.482C122.22 78.482 123.462 78.14 124.398 77.456C125.334 76.772 125.91 75.782 126.126 74.486C126.162 74.27 126.18 73.982 126.18 73.622C126.18 72.578 125.838 71.786 125.154 71.246C124.47 70.67 123.462 70.382 122.13 70.382H116.082L114.678 78.482H120.672ZM124.344 89.444C124.416 89.012 124.452 88.688 124.452 88.472C124.452 87.428 124.074 86.618 123.318 86.042C122.562 85.43 121.518 85.124 120.186 85.124H113.49L111.978 93.656H118.782C120.366 93.656 121.626 93.296 122.562 92.576C123.498 91.856 124.092 90.812 124.344 89.444ZM195.435 63.092C198.927 63.092 201.933 63.722 204.453 64.982C207.009 66.206 208.953 67.952 210.285 70.22C211.653 72.452 212.337 75.08 212.337 78.104C212.337 79.148 212.211 80.462 211.959 82.046C211.311 85.754 209.907 89.048 207.747 91.928C205.623 94.808 202.905 97.04 199.593 98.624C196.317 100.208 192.699 101 188.739 101H174.537L181.233 63.092H195.435ZM189.549 93.116C193.041 93.116 195.939 92.144 198.243 90.2C200.547 88.256 201.987 85.538 202.563 82.046C202.743 80.966 202.833 80.066 202.833 79.346C202.833 76.682 202.023 74.63 200.403 73.19C198.783 71.714 196.479 70.976 193.491 70.976H189.063L185.175 93.116H189.549ZM247.738 63.092L246.496 70.382H236.398L230.998 101H221.764L227.164 70.382H217.12L218.416 63.092H247.738ZM261.444 63.092L257.448 85.718C257.304 86.654 257.232 87.302 257.232 87.662C257.232 89.318 257.7 90.596 258.636 91.496C259.572 92.36 260.958 92.792 262.794 92.792C264.954 92.792 266.718 92.18 268.086 90.956C269.454 89.732 270.336 87.986 270.732 85.718L274.728 63.092H283.962L279.966 85.718C279.354 89.138 278.13 92.036 276.294 94.412C274.494 96.752 272.28 98.498 269.652 99.65C267.06 100.802 264.234 101.378 261.174 101.378C257.214 101.378 254.01 100.352 251.562 98.3C249.15 96.248 247.944 93.278 247.944 89.39C247.944 88.238 248.052 87.014 248.268 85.718L252.21 63.092H261.444Z" fill="#E5F0FF"/>
<path d="M74.2978 63.092L75.214 63.4927L75.8265 62.092H74.2978V63.092ZM57.7198 101V102H58.3739L58.636 101.401L57.7198 101ZM46.5418 101L45.544 101.067L45.6067 102H46.5418V101ZM44.8678 76.106L45.8655 76.0389L43.9482 75.713L44.8678 76.106ZM34.2298 101V102H34.8899L35.1493 101.393L34.2298 101ZM23.0518 101L22.0547 101.077L22.1257 102H23.0518V101ZM20.1357 63.092V62.092H19.0559L19.1387 63.1687L20.1357 63.092ZM30.0178 63.092L31.0175 63.0705L30.9965 62.092H30.0178V63.092ZM30.6118 90.686L29.612 90.7075L31.5335 91.0738L30.6118 90.686ZM42.2218 63.092V62.092H41.5576L41.3 62.7042L42.2218 63.092ZM52.4278 63.092L53.426 63.033L53.3704 62.092H52.4278V63.092ZM54.0478 90.524L53.0495 90.583L54.9838 90.8759L54.0478 90.524ZM64.3618 63.092V62.092H63.6694L63.4257 62.7401L64.3618 63.092ZM73.3815 62.6913L56.8035 100.599L58.636 101.401L75.214 63.4927L73.3815 62.6913ZM57.7198 100H46.5418V102H57.7198V100ZM47.5395 100.933L45.8655 76.0389L43.87 76.1731L45.544 101.067L47.5395 100.933ZM43.9482 75.713L33.3102 100.607L35.1493 101.393L45.7873 76.499L43.9482 75.713ZM34.2298 100H23.0518V102H34.2298V100ZM24.0488 100.923L21.1328 63.0153L19.1387 63.1687L22.0547 101.077L24.0488 100.923ZM20.1357 64.092H30.0178V62.092H20.1357V64.092ZM29.018 63.1135L29.612 90.7075L31.6115 90.6645L31.0175 63.0705L29.018 63.1135ZM31.5335 91.0738L43.1435 63.4798L41.3 62.7042L29.69 90.2982L31.5335 91.0738ZM42.2218 64.092H52.4278V62.092H42.2218V64.092ZM51.4295 63.151L53.0495 90.583L55.046 90.465L53.426 63.033L51.4295 63.151ZM54.9838 90.8759L65.2978 63.4439L63.4257 62.7401L53.1117 90.1721L54.9838 90.8759ZM64.3618 64.092H74.2978V62.092H64.3618V64.092ZM86.8667 70.382V69.382H86.0234L85.881 70.2132L86.8667 70.382ZM85.5167 78.266L84.531 78.0972L84.3309 79.266H85.5167V78.266ZM97.8827 78.266L98.8671 78.4415L99.0767 77.266H97.8827V78.266ZM96.6407 85.232V86.232H97.4781L97.6251 85.4075L96.6407 85.232ZM84.2747 85.232V84.232H83.4372L83.2902 85.0564L84.2747 85.232ZM82.7627 93.71L81.7782 93.5344L81.5686 94.71H82.7627V93.71ZM96.7487 93.71L97.7332 93.885L97.9421 92.71H96.7487V93.71ZM95.4527 101V102H96.2906L96.4372 101.175L95.4527 101ZM72.2327 101L71.2479 100.826L71.0406 102H72.2327V101ZM78.9287 63.092V62.092H78.0898L77.9439 62.9181L78.9287 63.092ZM102.149 63.092L103.133 63.267L103.342 62.092H102.149V63.092ZM100.853 70.382V71.382H101.691L101.837 70.557L100.853 70.382ZM85.881 70.2132L84.531 78.0972L86.5023 78.4348L87.8523 70.5508L85.881 70.2132ZM85.5167 79.266H97.8827V77.266H85.5167V79.266ZM96.8982 78.0905L95.6562 85.0565L97.6251 85.4075L98.8671 78.4415L96.8982 78.0905ZM96.6407 84.232H84.2747V86.232H96.6407V84.232ZM83.2902 85.0564L81.7782 93.5344L83.7471 93.8856L85.2591 85.4076L83.2902 85.0564ZM82.7627 94.71H96.7487V92.71H82.7627V94.71ZM95.7641 93.535L94.4681 100.825L96.4372 101.175L97.7332 93.885L95.7641 93.535ZM95.4527 100H72.2327V102H95.4527V100ZM73.2174 101.174L79.9134 63.2659L77.9439 62.9181L71.2479 100.826L73.2174 101.174ZM78.9287 64.092H102.149V62.092H78.9287V64.092ZM101.164 62.917L99.8681 70.207L101.837 70.557L103.133 63.267L101.164 62.917ZM100.853 69.382H86.8667V71.382H100.853V69.382ZM135.792 72.92L136.776 73.0947L136.778 73.0844L135.792 72.92ZM133.038 78.482L132.322 77.7837L133.038 78.482ZM127.854 81.56L127.579 80.5985L127.639 82.5366L127.854 81.56ZM132.12 84.206L132.914 83.5993V83.5993L132.12 84.206ZM133.524 90.686L132.543 90.4899L132.54 90.5039L132.538 90.518L133.524 90.686ZM128.88 98.246L129.463 99.0582L129.47 99.0528L128.88 98.246ZM101.448 101L100.463 100.826L100.255 102H101.448V101ZM108.144 63.092V62.092H107.305L107.159 62.9181L108.144 63.092ZM133.146 65.198L133.746 64.398L133.146 65.198ZM126.126 74.486L127.112 74.6504V74.6504L126.126 74.486ZM125.154 71.246L124.509 72.0109L124.521 72.0211L124.534 72.0309L125.154 71.246ZM116.082 70.382V69.382H115.24L115.096 70.2112L116.082 70.382ZM114.678 78.482L113.692 78.3112L113.489 79.482H114.678V78.482ZM124.344 89.444L125.327 89.6252L125.329 89.6168L125.33 89.6084L124.344 89.444ZM123.318 86.042L122.688 86.8192L122.7 86.8285L122.711 86.8374L123.318 86.042ZM113.49 85.124V84.124H112.651L112.505 84.9495L113.49 85.124ZM111.978 93.656L110.993 93.4815L110.785 94.656H111.978V93.656ZM122.562 92.576L121.952 91.7834L122.562 92.576ZM134.807 72.7453C134.442 74.8002 133.608 76.4655 132.322 77.7837L133.753 79.1803C135.347 77.5465 136.349 75.5038 136.776 73.0947L134.807 72.7453ZM132.322 77.7837C131.005 79.1329 129.43 80.0695 127.579 80.5985L128.128 82.5215C130.309 81.8985 132.19 80.7831 133.753 79.1803L132.322 77.7837ZM127.639 82.5366C129.225 82.8857 130.435 83.6467 131.325 84.8127L132.914 83.5993C131.716 82.0293 130.082 81.0263 128.068 80.5834L127.639 82.5366ZM131.325 84.8127C132.226 85.9944 132.686 87.3796 132.686 89.012H134.686C134.686 86.9724 134.101 85.1536 132.914 83.5993L131.325 84.8127ZM132.686 89.012C132.686 89.5252 132.637 90.0173 132.543 90.4899L134.504 90.8821C134.626 90.2747 134.686 89.6508 134.686 89.012H132.686ZM132.538 90.518C132.041 93.4339 130.632 95.7232 128.289 97.4392L129.47 99.0528C132.239 97.0248 133.926 94.2741 134.509 90.854L132.538 90.518ZM128.296 97.4338C125.95 99.1193 122.911 100 119.106 100V102C123.22 102 126.697 101.045 129.463 99.0582L128.296 97.4338ZM119.106 100H101.448V102H119.106V100ZM102.432 101.174L109.128 63.2659L107.159 62.9181L100.463 100.826L102.432 101.174ZM108.144 64.092H125.208V62.092H108.144V64.092ZM125.208 64.092C128.507 64.092 130.91 64.7715 132.546 65.998L133.746 64.398C131.637 62.8165 128.748 62.092 125.208 62.092V64.092ZM132.546 65.998C134.148 67.2 134.954 68.8382 134.954 71.03H136.954C136.954 68.2538 135.887 66.004 133.746 64.398L132.546 65.998ZM134.954 71.03C134.954 71.5831 134.905 72.158 134.805 72.7556L136.778 73.0844C136.894 72.386 136.954 71.7009 136.954 71.03H134.954ZM120.672 79.482C122.361 79.482 123.831 79.1085 124.988 78.2634L123.808 76.6486C123.092 77.1715 122.078 77.482 120.672 77.482V79.482ZM124.988 78.2634C126.163 77.4041 126.859 76.167 127.112 74.6504L125.139 74.3216C124.96 75.397 124.504 76.1399 123.808 76.6486L124.988 78.2634ZM127.112 74.6504C127.161 74.3567 127.18 74.0068 127.18 73.622H125.18C125.18 73.9572 125.162 74.1833 125.139 74.3216L127.112 74.6504ZM127.18 73.622C127.18 72.3395 126.746 71.229 125.773 70.4611L124.534 72.0309C124.929 72.343 125.18 72.8165 125.18 73.622H127.18ZM125.798 70.4811C124.863 69.6942 123.586 69.382 122.13 69.382V71.382C123.337 71.382 124.076 71.6458 124.509 72.0109L125.798 70.4811ZM122.13 69.382H116.082V71.382H122.13V69.382ZM115.096 70.2112L113.692 78.3112L115.663 78.6528L117.067 70.5528L115.096 70.2112ZM114.678 79.482H120.672V77.482H114.678V79.482ZM125.33 89.6084C125.404 89.1654 125.452 88.7743 125.452 88.472H123.452C123.452 88.6017 123.427 88.8586 123.357 89.2796L125.33 89.6084ZM125.452 88.472C125.452 87.1513 124.955 86.0322 123.924 85.2466L122.711 86.8374C123.192 87.2038 123.452 87.7047 123.452 88.472H125.452ZM123.947 85.2648C122.957 84.4634 121.663 84.124 120.186 84.124V86.124C121.372 86.124 122.166 86.3966 122.688 86.8192L123.947 85.2648ZM120.186 84.124H113.49V86.124H120.186V84.124ZM112.505 84.9495L110.993 93.4815L112.962 93.8305L114.474 85.2985L112.505 84.9495ZM111.978 94.656H118.782V92.656H111.978V94.656ZM118.782 94.656C120.511 94.656 122.009 94.2625 123.171 93.3686L121.952 91.7834C121.242 92.3295 120.22 92.656 118.782 92.656V94.656ZM123.171 93.3686C124.337 92.4718 125.039 91.1903 125.327 89.6252L123.36 89.2628C123.144 90.4337 122.658 91.2402 121.952 91.7834L123.171 93.3686ZM204.453 64.982L204.006 65.8764L204.014 65.8802L204.021 65.8839L204.453 64.982ZM210.285 70.22L209.423 70.7264L209.428 70.7345L209.433 70.7426L210.285 70.22ZM211.959 82.046L212.944 82.2181L212.946 82.2106L212.947 82.2031L211.959 82.046ZM207.747 91.928L206.947 91.328L206.943 91.3345L207.747 91.928ZM199.593 98.624L199.162 97.7219L199.158 97.7237L199.593 98.624ZM174.537 101L173.553 100.826L173.345 102H174.537V101ZM181.233 63.092V62.092H180.395L180.249 62.9181L181.233 63.092ZM198.243 90.2L198.888 90.9643L198.243 90.2ZM202.563 82.046L201.577 81.8816L201.577 81.8833L202.563 82.046ZM200.403 73.19L199.73 73.9292L199.739 73.9374L200.403 73.19ZM189.063 70.976V69.976H188.224L188.078 70.803L189.063 70.976ZM185.175 93.116L184.19 92.943L183.984 94.116H185.175V93.116ZM195.435 64.092C198.809 64.092 201.654 64.7005 204.006 65.8764L204.901 64.0876C202.212 62.7435 199.046 62.092 195.435 62.092V64.092ZM204.021 65.8839C206.412 67.0289 208.2 68.6436 209.423 70.7264L211.148 69.7136C209.707 67.2604 207.606 65.3831 204.885 64.0801L204.021 65.8839ZM209.433 70.7426C210.69 72.7942 211.337 75.2353 211.337 78.104H213.337C213.337 74.9247 212.617 72.1098 211.138 69.6974L209.433 70.7426ZM211.337 78.104C211.337 79.0754 211.219 80.3324 210.972 81.8889L212.947 82.2031C213.203 80.5916 213.337 79.2206 213.337 78.104H211.337ZM210.974 81.8739C210.352 85.4339 209.008 88.5798 206.947 91.328L208.547 92.528C210.806 89.5162 212.271 86.0741 212.944 82.2181L210.974 81.8739ZM206.943 91.3345C204.918 94.079 202.33 96.2067 199.162 97.7219L200.025 99.5261C203.481 97.8733 206.328 95.537 208.552 92.5215L206.943 91.3345ZM199.158 97.7237C196.029 99.2364 192.562 100 188.739 100V102C192.837 102 196.605 101.18 200.029 99.5243L199.158 97.7237ZM188.739 100H174.537V102H188.739V100ZM175.522 101.174L182.218 63.2659L180.249 62.9181L173.553 100.826L175.522 101.174ZM181.233 64.092H195.435V62.092H181.233V64.092ZM189.549 94.116C193.238 94.116 196.376 93.0841 198.888 90.9643L197.598 89.4357C195.503 91.2038 192.845 92.116 189.549 92.116V94.116ZM198.888 90.9643C201.405 88.8409 202.942 85.8925 203.55 82.2087L201.577 81.8833C201.032 85.1835 199.69 87.6711 197.598 89.4357L198.888 90.9643ZM203.55 82.2104C203.735 81.101 203.833 80.1416 203.833 79.346H201.833C201.833 79.9904 201.752 80.831 201.577 81.8816L203.55 82.2104ZM203.833 79.346C203.833 76.4672 202.949 74.1148 201.068 72.4426L199.739 73.9374C201.098 75.1452 201.833 76.8968 201.833 79.346H203.833ZM201.077 72.4508C199.215 70.7542 196.637 69.976 193.491 69.976V71.976C196.322 71.976 198.352 72.6738 199.73 73.9292L201.077 72.4508ZM193.491 69.976H189.063V71.976H193.491V69.976ZM188.078 70.803L184.19 92.943L186.16 93.289L190.048 71.149L188.078 70.803ZM185.175 94.116H189.549V92.116H185.175V94.116ZM247.738 63.092L248.724 63.2599L248.923 62.092H247.738V63.092ZM246.496 70.382V71.382H247.34L247.482 70.5499L246.496 70.382ZM236.398 70.382V69.382H235.559L235.413 70.2083L236.398 70.382ZM230.998 101V102H231.837L231.983 101.174L230.998 101ZM221.764 101L220.779 100.826L220.572 102H221.764V101ZM227.164 70.382L228.149 70.5557L228.356 69.382H227.164V70.382ZM217.12 70.382L216.135 70.207L215.926 71.382H217.12V70.382ZM218.416 63.092V62.092H217.578L217.431 62.917L218.416 63.092ZM246.752 62.924L245.51 70.214L247.482 70.5499L248.724 63.2599L246.752 62.924ZM246.496 69.382H236.398V71.382H246.496V69.382ZM235.413 70.2083L230.013 100.826L231.983 101.174L237.383 70.5557L235.413 70.2083ZM230.998 100H221.764V102H230.998V100ZM222.749 101.174L228.149 70.5557L226.179 70.2083L220.779 100.826L222.749 101.174ZM227.164 69.382H217.12V71.382H227.164V69.382ZM218.104 70.557L219.4 63.267L217.431 62.917L216.135 70.207L218.104 70.557ZM218.416 64.092H247.738V62.092H218.416V64.092ZM261.444 63.092L262.429 63.2659L262.636 62.092H261.444V63.092ZM257.448 85.718L256.463 85.5441L256.461 85.555L256.46 85.5659L257.448 85.718ZM258.636 91.496L257.943 92.2168L257.95 92.2239L257.958 92.2308L258.636 91.496ZM268.086 90.956L268.753 91.7012L268.086 90.956ZM270.732 85.718L269.747 85.5441L269.747 85.546L270.732 85.718ZM274.728 63.092V62.092H273.889L273.743 62.9181L274.728 63.092ZM283.962 63.092L284.947 63.2659L285.154 62.092H283.962V63.092ZM279.966 85.718L280.95 85.8941L280.951 85.8919L279.966 85.718ZM276.294 94.412L275.503 93.8006L275.501 93.8023L276.294 94.412ZM269.652 99.65L269.251 98.7341L269.246 98.7362L269.652 99.65ZM251.562 98.3L250.914 99.0617L250.92 99.0664L251.562 98.3ZM248.268 85.718L247.283 85.5464L247.282 85.5536L248.268 85.718ZM252.21 63.092V62.092H251.369L251.225 62.9204L252.21 63.092ZM260.459 62.9181L256.463 85.5441L258.433 85.8919L262.429 63.2659L260.459 62.9181ZM256.46 85.5659C256.316 86.4967 256.232 87.2155 256.232 87.662H258.232C258.232 87.3885 258.292 86.8113 258.436 85.8701L256.46 85.5659ZM256.232 87.662C256.232 89.511 256.76 91.0797 257.943 92.2168L259.329 90.7752C258.64 90.1123 258.232 89.125 258.232 87.662H256.232ZM257.958 92.2308C259.146 93.3276 260.817 93.792 262.794 93.792V91.792C261.099 91.792 259.998 91.3924 259.314 90.7612L257.958 92.2308ZM262.794 93.792C265.154 93.792 267.17 93.1176 268.753 91.7012L267.419 90.2108C266.266 91.2424 264.754 91.792 262.794 91.792V93.792ZM268.753 91.7012C270.327 90.2926 271.293 88.322 271.717 85.89L269.747 85.546C269.38 87.65 268.581 89.1714 267.419 90.2108L268.753 91.7012ZM271.717 85.8919L275.713 63.2659L273.743 62.9181L269.747 85.5441L271.717 85.8919ZM274.728 64.092H283.962V62.092H274.728V64.092ZM282.977 62.9181L278.981 85.5441L280.951 85.8919L284.947 63.2659L282.977 62.9181ZM278.982 85.5419C278.394 88.8283 277.226 91.5707 275.503 93.8006L277.085 95.0234C279.034 92.5013 280.315 89.4477 280.95 85.8941L278.982 85.5419ZM275.501 93.8023C273.801 96.013 271.72 97.6517 269.251 98.7341L270.053 100.566C272.84 99.3443 275.187 97.491 277.087 95.0217L275.501 93.8023ZM269.246 98.7362C266.792 99.827 264.105 100.378 261.174 100.378V102.378C264.363 102.378 267.328 101.777 270.058 100.564L269.246 98.7362ZM261.174 100.378C257.391 100.378 254.432 99.4012 252.204 97.5336L250.92 99.0664C253.588 101.303 257.037 102.378 261.174 102.378V100.378ZM252.21 97.5383C250.071 95.719 248.944 93.0576 248.944 89.39H246.944C246.944 93.4983 248.229 96.777 250.914 99.0617L252.21 97.5383ZM248.944 89.39C248.944 88.3001 249.046 87.1315 249.254 85.8824L247.282 85.5536C247.058 86.8965 246.944 88.1759 246.944 89.39H248.944ZM249.253 85.8896L253.195 63.2636L251.225 62.9204L247.283 85.5464L249.253 85.8896ZM252.21 64.092H261.444V62.092H252.21V64.092Z" fill="#E5F0FF" mask="url(#path-3-outside-2_121_115)"/>
</g>
<defs>
<filter id="filter0_d_121_115" x="16.1357" y="63.092" width="271.826" height="46.2859" filterUnits="userSpaceOnUse" color-interpolation-filters="sRGB">
<feFlood flood-opacity="0" result="BackgroundImageFix"/>
<feColorMatrix in="SourceAlpha" type="matrix" values="0 0 0 0 0 0 0 0 0 0 0 0 0 0 0 0 0 0 127 0" result="hardAlpha"/>
<feOffset dy="4"/>
<feGaussianBlur stdDeviation="2"/>
<feComposite in2="hardAlpha" operator="out"/>
<feColorMatrix type="matrix" values="0 0 0 0 0 0 0 0 0 0 0 0 0 0 0 0 0 0 0.25 0"/>
<feBlend mode="normal" in2="BackgroundImageFix" result="effect1_dropShadow_121_115"/>
<feBlend mode="normal" in="SourceGraphic" in2="effect1_dropShadow_121_115" result="shape"/>
</filter>
</defs>
</svg>
